<?xml version="1.0" standalone="no"?>
<!DOCTYPE svg PUBLIC "-//W3C//DTD SVG 20010904//EN"
 "http://www.w3.org/TR/2001/REC-SVG-20010904/DTD/svg10.dtd">
<svg version="1.0" xmlns="http://www.w3.org/2000/svg"
 width="1024.000000pt" height="1024.000000pt" viewBox="0 0 1024.000000 1024.000000"
 preserveAspectRatio="xMidYMid meet">
<metadata>
Created by potrace 1.11, written by Peter Selinger 2001-2013
</metadata>
<g transform="translate(0.000000,1024.000000) scale(0.100000,-0.100000)"
fill="#000000" stroke="none">
<path d="M1709 8809 c-19 -3 -41 -9 -48 -14 -10 -6 -12 -4 -6 5 5 8 4 11 -2 7
-11 -7 -64 -17 -113 -22 -14 -2 -25 -4 -25 -5 0 -2 -12 -5 -65 -15 -19 -4 -41
-8 -47 -8 -7 0 -13 -3 -13 -6 0 -4 -10 -8 -22 -9 -26 -2 -62 -9 -65 -12 -2 -2
-6 -3 -10 -4 -5 -1 -17 -5 -28 -9 -23 -7 -74 -18 -92 -19 -7 -1 -13 -4 -13 -8
0 -3 -8 -6 -17 -7 -10 -1 -45 -11 -78 -23 -33 -11 -68 -22 -78 -25 -32 -7
-141 -47 -169 -62 -16 -7 -28 -11 -28 -7 0 4 -6 1 -13 -5 -8 -6 -17 -8 -20 -4
-4 3 -7 2 -7 -4 0 -6 -12 -14 -27 -19 -38 -10 -32 -8 -85 -32 -74 -33 -163
-76 -168 -82 -3 -3 -10 -6 -16 -7 -7 -1 -35 -16 -62 -32 -28 -16 -53 -27 -56
-24 -3 4 -6 1 -6 -5 0 -7 -4 -12 -9 -12 -14 0 -135 -72 -139 -82 -2 -4 -8 -8
-13 -8 -15 0 -91 -52 -126 -87 l-33 -32 50 -53 c28 -29 50 -56 50 -60 0 -5 7
-16 15 -25 37 -43 65 -82 65 -92 0 -6 5 -11 10 -11 6 0 10 -7 10 -15 0 -8 5
-15 10 -15 6 0 10 -6 10 -14 0 -8 4 -16 9 -18 5 -1 11 -10 13 -18 2 -8 8 -20
13 -27 25 -31 31 -40 42 -63 7 -14 33 -61 57 -105 48 -86 180 -349 178 -352
-1 -2 12 -30 29 -63 37 -75 53 -113 51 -122 -1 -5 2 -8 8 -8 6 0 9 -3 8 -7 -1
-8 9 -36 37 -98 28 -63 68 -171 68 -182 0 -7 4 -13 9 -13 5 0 7 -4 3 -9 -3 -5
-1 -12 5 -16 5 -3 10 -16 10 -28 0 -17 -12 -27 -47 -43 -27 -12 -74 -33 -107
-48 -32 -14 -64 -26 -71 -26 -8 0 -15 -3 -17 -8 -1 -4 -33 -20 -70 -35 -78
-34 -90 -55 -50 -95 15 -15 36 -28 47 -29 20 -1 64 -8 133 -19 79 -14 359 -7
502 12 19 3 51 7 70 9 49 5 153 23 190 32 8 2 29 5 45 7 17 3 30 5 30 6 0 2
15 5 60 13 17 3 45 10 64 16 19 6 38 8 42 5 5 -3 9 -1 9 5 0 5 11 8 25 6 14
-1 25 1 25 6 0 4 15 11 33 14 17 4 63 18 101 31 38 13 73 21 78 18 4 -3 8 -1
8 3 0 5 24 17 53 27 116 41 317 132 329 150 4 6 8 8 8 4 0 -4 15 0 33 10 17
10 68 38 112 62 80 43 177 108 183 122 2 5 8 8 12 8 5 0 20 10 32 23 13 12 48
42 77 67 30 25 59 50 65 55 6 6 23 19 37 30 14 11 27 24 30 30 2 5 14 20 27
34 12 13 20 26 17 29 -3 3 0 11 6 18 8 9 5 16 -12 24 -24 14 -134 7 -153 -9
-7 -6 -17 -6 -26 -1 -8 5 -19 5 -25 0 -6 -5 -24 -11 -40 -14 -17 -2 -30 -5
-30 -6 0 -1 -11 -3 -25 -5 -35 -4 -79 -13 -118 -24 -30 -9 -37 -7 -55 13 -12
13 -29 39 -38 58 -9 18 -31 61 -48 96 -18 34 -29 62 -25 62 3 0 1 7 -6 15 -7
8 -9 15 -4 15 5 0 2 5 -6 10 -8 5 -15 13 -16 17 -1 10 -8 28 -42 113 -15 36
-26 68 -25 72 2 5 -2 8 -7 8 -5 0 -9 3 -8 8 2 6 -25 87 -55 162 -6 14 -11 27
-12 30 -3 14 -27 87 -33 100 -3 8 -7 20 -7 25 -1 6 -7 23 -14 39 -6 16 -13 38
-16 50 -2 11 -4 22 -6 24 -1 1 -3 7 -4 12 -1 6 -4 12 -5 15 -1 3 -4 10 -5 15
-1 6 -3 11 -4 13 -2 2 -8 29 -15 64 -1 7 -5 16 -9 19 -4 4 -7 20 -7 36 0 15
-4 28 -9 28 -4 0 -7 10 -7 23 1 12 -2 30 -6 40 -5 10 -11 33 -12 51 -2 19 -7
39 -11 46 -8 12 -13 51 -17 117 -2 24 -5 43 -8 43 -4 0 -6 10 -7 23 -2 82 -8
109 -25 118 -18 10 -113 9 -179 -2z"/>
<path d="M4386 7279 c2 -3 -9 -7 -24 -7 -15 -1 -38 -4 -52 -7 -14 -2 -43 -7
-65 -10 -22 -3 -47 -8 -55 -12 -8 -3 -24 -8 -35 -10 -11 -2 -38 -9 -60 -15
-51 -15 -47 -14 -67 -22 -9 -4 -22 -9 -30 -10 -7 -2 -29 -9 -48 -17 -19 -7
-38 -12 -42 -11 -5 1 -8 -3 -8 -9 0 -5 -4 -7 -10 -4 -5 3 -10 1 -10 -5 0 -6
-4 -8 -10 -5 -5 3 -10 1 -10 -4 0 -6 -3 -10 -7 -9 -10 3 -81 -30 -115 -54 -16
-11 -28 -16 -28 -11 -1 4 -9 -2 -19 -14 -10 -12 -21 -20 -24 -16 -4 3 -20 -6
-37 -21 -17 -14 -35 -26 -38 -26 -4 0 -19 -10 -34 -23 -14 -12 -41 -33 -58
-47 -17 -14 -43 -35 -57 -47 -31 -25 -40 -23 -91 26 -21 20 -49 43 -62 51 -12
8 -28 20 -35 27 -7 7 -15 9 -19 6 -3 -4 -6 -2 -6 4 0 9 -93 73 -108 73 -4 0
-18 9 -32 20 -14 11 -33 20 -42 20 -10 0 -18 4 -18 9 0 6 -9 9 -20 8 -11 -1
-20 -6 -20 -12 0 -12 -10 -20 -89 -83 -29 -23 -49 -42 -44 -42 4 0 -5 -9 -22
-19 -16 -11 -43 -31 -60 -46 -16 -15 -47 -39 -67 -53 -21 -13 -38 -29 -38 -34
0 -5 -3 -7 -7 -5 -5 3 -14 -1 -21 -9 -11 -12 -9 -14 8 -14 11 0 20 -4 20 -10
0 -5 11 -10 25 -10 14 0 25 -4 25 -8 0 -5 6 -9 13 -9 20 0 137 -57 137 -66 0
-5 5 -5 10 -2 6 3 10 2 10 -3 0 -5 14 -15 30 -22 17 -7 30 -16 30 -21 0 -5 7
-9 15 -9 8 0 15 -4 15 -10 0 -5 7 -10 16 -10 8 0 12 -4 9 -10 -3 -5 1 -10 9
-10 8 0 22 -10 30 -22 9 -12 16 -19 16 -15 0 4 32 -25 70 -64 39 -40 70 -78
70 -86 0 -7 7 -13 15 -13 8 0 15 -7 15 -15 0 -8 5 -15 10 -15 6 0 10 -6 10
-12 0 -7 10 -25 23 -40 12 -14 30 -35 39 -46 9 -11 14 -23 11 -26 -3 -3 2 -8
11 -12 9 -3 16 -10 16 -15 0 -6 5 -15 10 -22 6 -7 20 -25 32 -41 20 -27 22
-28 35 -10 23 33 47 65 66 85 9 10 17 23 17 29 0 5 10 18 22 30 12 11 18 20
13 20 -4 0 4 11 19 25 15 14 24 25 21 25 -4 0 0 7 7 15 7 8 22 26 33 40 11 14
32 40 48 57 15 17 27 36 27 41 0 6 3 7 6 4 4 -4 22 9 40 29 19 19 34 33 34 30
0 -3 10 5 23 17 38 36 67 57 67 49 0 -4 4 -2 8 4 13 18 172 108 172 96 0 -4 4
-2 8 4 6 9 114 53 147 61 6 1 21 4 34 7 12 3 29 10 37 17 11 9 14 9 14 0 0 -8
5 -9 19 -2 10 6 34 13 52 15 19 3 51 8 73 11 21 3 43 8 47 11 5 3 9 0 9 -7 0
-7 4 -8 13 -2 15 11 262 7 282 -5 5 -3 23 -7 40 -9 33 -4 70 -11 70 -13 0 -1
11 -4 25 -6 13 -2 27 -8 30 -12 3 -4 16 -9 30 -10 14 -2 29 -8 35 -13 5 -5 19
-9 31 -9 12 0 24 -5 26 -10 2 -6 14 -12 27 -15 14 -2 28 -10 31 -16 4 -6 10
-9 13 -7 4 1 15 -5 26 -14 11 -9 22 -14 25 -11 3 4 6 1 6 -5 0 -7 3 -11 8 -10
8 3 95 -53 100 -64 2 -4 14 -3 27 2 41 16 113 22 299 25 105 2 187 0 198 -6
12 -7 18 -6 18 1 0 6 4 9 8 6 5 -3 20 -7 35 -10 27 -5 27 -5 10 22 -10 15 -22
30 -28 34 -6 5 -6 8 0 8 6 1 0 5 -13 11 -13 5 -20 13 -17 19 3 5 -2 10 -11 10
-10 0 -15 3 -11 6 6 6 -87 105 -98 104 -3 0 -17 13 -32 30 -14 17 -27 29 -29
27 -2 -2 -23 13 -46 35 -23 21 -47 38 -55 38 -7 0 -13 4 -13 8 0 9 -117 82
-131 82 -5 0 -9 5 -9 11 0 5 -4 8 -9 4 -5 -3 -12 -1 -16 4 -7 12 -127 67 -137
63 -5 -1 -8 3 -8 10 0 6 -3 8 -7 5 -3 -4 -11 -3 -17 1 -6 5 -33 16 -61 26 -27
10 -57 20 -65 23 -8 3 -22 7 -30 8 -8 1 -35 8 -60 15 -25 7 -56 14 -70 16 -14
2 -41 6 -60 9 -19 4 -48 8 -65 10 -16 2 -32 4 -35 6 -11 5 -388 4 -384 -2z"/>
<path d="M9282 6384 c-6 -3 -10 -10 -6 -15 3 -5 0 -9 -5 -9 -6 0 -10 -3 -9 -7
3 -17 -15 -63 -25 -63 -6 0 -8 -3 -4 -6 3 -4 -5 -28 -18 -54 -13 -26 -21 -50
-18 -54 4 -3 1 -6 -6 -6 -7 0 -10 -4 -6 -9 3 -5 1 -12 -5 -16 -6 -4 -8 -11 -5
-16 4 -5 1 -9 -5 -9 -6 0 -8 -4 -5 -10 3 -5 2 -10 -3 -10 -6 0 -13 -12 -17
-27 -3 -15 -14 -43 -22 -62 -9 -20 -17 -39 -18 -43 -2 -5 -4 -11 -5 -15 -1 -5
-2 -11 -1 -15 0 -5 -3 -8 -9 -8 -5 0 -10 -8 -10 -18 0 -10 -4 -22 -8 -28 -5
-5 -20 -36 -32 -69 -13 -33 -30 -71 -37 -85 -7 -14 -13 -33 -13 -42 0 -10 -4
-18 -10 -18 -5 0 -10 -6 -10 -14 0 -7 -12 -40 -27 -72 -14 -32 -26 -64 -26
-71 0 -7 -3 -13 -7 -13 -3 0 -12 -17 -19 -37 -13 -36 -49 -120 -74 -171 -20
-41 -23 -40 245 -45 87 -2 161 -6 164 -10 4 -3 14 -2 24 3 10 5 20 6 24 3 3
-4 70 -8 149 -9 240 -5 500 -15 509 -20 4 -3 8 -1 8 5 0 6 6 8 13 5 8 -3 40
-6 72 -7 50 -3 59 0 72 20 8 12 12 27 8 33 -3 5 -1 10 5 10 6 0 8 5 5 10 -3 6
-1 10 5 10 6 0 8 5 5 10 -3 6 -2 10 4 10 6 0 8 7 5 15 -4 8 -1 15 7 15 7 0 9
3 6 7 -4 3 0 17 8 30 10 15 12 23 4 23 -8 0 -7 5 2 16 7 9 14 25 16 37 2 11 8
26 14 34 6 7 8 13 4 13 -4 0 -2 7 5 15 7 8 9 15 5 15 -4 0 -3 6 2 13 6 6 9 20
8 30 -2 9 0 15 5 12 4 -3 10 4 13 15 3 11 1 20 -4 20 -5 0 -9 6 -9 13 0 7 -9
23 -20 35 -12 12 -18 22 -15 22 4 0 -1 7 -9 16 -9 8 -13 20 -10 26 4 7 2 8 -4
4 -7 -4 -18 7 -28 26 -9 17 -32 52 -51 77 -18 26 -32 49 -31 53 2 4 -7 15 -19
23 -13 9 -23 21 -23 26 0 6 -7 17 -15 26 -8 8 -12 19 -9 25 4 6 3 8 -3 5 -5
-4 -16 5 -23 18 -7 14 -17 25 -22 25 -5 0 -6 5 -3 10 3 6 -1 13 -9 16 -9 3
-16 12 -16 19 0 10 -9 24 -50 72 -5 7 -10 17 -10 23 0 5 -4 10 -10 10 -5 0
-10 7 -10 15 0 8 -5 15 -11 15 -5 0 -7 5 -4 10 3 6 -1 10 -9 10 -9 0 -16 9
-16 20 0 11 -3 20 -7 20 -5 0 -15 13 -24 29 -11 19 -25 29 -43 30 -14 1 -39 2
-56 3 -16 1 -30 4 -30 7 0 3 -26 6 -58 7 -57 1 -190 11 -247 19 -16 2 -36 2
-43 -1z"/>
<path d="M1167 6283 c-5 -4 -20 -9 -35 -9 -77 -5 -99 -8 -116 -17 -14 -7 -16
-6 -11 4 6 9 3 10 -11 5 -10 -5 -68 -9 -129 -10 -60 -1 -115 -5 -122 -9 -6 -4
-13 -2 -15 3 -6 18 -39 -14 -42 -41 -1 -13 -6 -30 -10 -37 -7 -12 -13 -33 -23
-87 -8 -45 -11 -60 -13 -60 -2 0 -11 -69 -14 -105 -1 -19 -5 -41 -9 -48 -5 -7
-3 -12 3 -12 6 0 8 -5 4 -12 -10 -16 -11 -198 -1 -198 4 0 3 -9 -3 -20 -6 -11
-7 -20 -2 -20 4 0 9 -24 10 -52 1 -29 4 -64 7 -78 11 -46 13 -55 15 -55 1 0 3
-13 5 -30 1 -16 8 -48 13 -70 6 -22 9 -41 7 -44 -3 -2 3 -10 13 -17 11 -9 12
-13 4 -14 -9 0 -8 -7 4 -25 9 -14 14 -28 10 -32 -3 -3 -1 -12 5 -20 6 -7 8
-13 3 -13 -5 0 -4 -4 1 -8 6 -4 19 -32 29 -62 11 -30 30 -76 43 -102 12 -26
23 -54 23 -63 0 -8 4 -15 8 -15 5 0 15 -18 22 -40 7 -22 17 -40 22 -40 5 0 6
-4 3 -10 -3 -5 -2 -10 3 -10 6 0 15 -12 21 -27 13 -35 52 -104 69 -121 6 -7
12 -20 12 -28 0 -8 5 -12 10 -9 6 3 10 -1 10 -10 0 -9 9 -25 20 -37 11 -12 20
-28 20 -35 0 -7 5 -13 10 -13 6 0 10 -4 10 -9 0 -6 11 -22 25 -37 14 -15 25
-31 25 -36 0 -5 6 -16 13 -23 6 -8 23 -28 37 -45 14 -18 33 -39 43 -48 9 -9
17 -22 17 -29 0 -7 5 -13 10 -13 6 0 10 -7 10 -16 0 -8 5 -12 10 -9 5 3 10 2
10 -2 0 -11 43 -64 94 -114 21 -22 36 -39 32 -39 -8 0 265 -270 360 -357 38
-35 70 -63 72 -63 1 0 18 -15 37 -32 19 -18 50 -45 67 -60 18 -16 53 -46 78
-68 24 -22 50 -40 58 -40 7 0 10 -4 7 -10 -3 -6 -1 -10 5 -10 6 0 25 -12 40
-27 38 -37 48 -44 95 -76 22 -15 35 -27 30 -27 -5 0 0 -6 10 -14 11 -8 23 -12
27 -10 5 3 8 -2 8 -11 0 -9 4 -14 8 -11 5 3 19 -6 31 -20 12 -14 26 -22 31
-19 6 3 10 -1 10 -9 0 -9 5 -16 10 -16 10 0 16 -5 75 -58 14 -12 25 -20 25
-17 0 2 10 -4 23 -14 12 -11 36 -31 52 -45 17 -14 36 -26 43 -26 7 0 10 -4 7
-10 -3 -5 -1 -10 4 -10 11 0 38 -20 73 -52 10 -10 18 -15 18 -10 0 4 7 -2 15
-12 8 -11 15 -17 15 -13 0 4 8 -1 18 -10 11 -10 32 -27 47 -38 16 -11 33 -25
39 -31 6 -5 19 -13 29 -17 9 -3 17 -11 17 -17 0 -6 4 -9 8 -6 5 3 15 -4 22
-15 8 -10 18 -19 23 -19 5 0 14 -6 21 -12 8 -7 24 -20 36 -28 12 -8 28 -19 34
-25 6 -5 27 -21 46 -35 19 -13 40 -28 45 -33 11 -9 131 -94 165 -117 12 -8 33
-23 45 -32 13 -10 26 -18 30 -18 3 0 13 -6 20 -12 34 -30 42 -35 64 -33 12 1
26 6 29 11 4 5 34 27 67 49 33 22 62 43 63 48 2 4 10 7 18 7 8 0 14 5 14 10 0
6 7 10 15 10 9 0 18 7 21 15 4 8 10 15 16 15 5 0 15 6 22 12 8 7 24 20 36 28
13 8 33 24 46 35 12 11 37 31 54 45 17 14 41 33 52 43 12 9 24 17 27 17 3 0
25 19 49 41 23 23 42 38 42 35 0 -6 50 36 81 68 11 11 19 16 19 12 0 -4 11 4
24 18 13 15 28 26 34 26 6 0 16 9 22 20 6 11 16 20 23 20 7 0 24 13 39 30 14
16 28 26 32 23 3 -4 6 -1 6 5 0 7 5 12 10 12 5 0 18 8 28 18 10 9 33 28 51 42
18 14 45 37 61 53 16 15 32 27 37 27 5 0 15 9 23 20 28 39 44 31 120 -60 25
-30 58 -67 74 -82 16 -15 26 -28 23 -28 -3 0 25 -32 63 -71 39 -39 70 -76 70
-82 0 -6 3 -8 6 -4 8 8 34 -18 34 -34 0 -7 3 -10 6 -7 3 4 48 -36 100 -88 52
-52 97 -94 100 -94 3 0 23 -18 45 -40 21 -21 39 -37 39 -35 0 2 18 -13 40 -35
22 -22 40 -37 40 -35 0 3 13 -9 29 -25 15 -17 33 -30 39 -30 5 0 13 -7 16 -16
4 -9 9 -15 12 -12 2 3 19 -9 37 -26 55 -51 107 -96 107 -90 0 3 10 -5 23 -18
13 -13 38 -34 57 -48 18 -14 40 -32 50 -40 10 -8 32 -26 50 -40 18 -14 39 -31
46 -37 7 -7 15 -13 18 -13 3 0 15 -8 25 -18 24 -21 29 -25 115 -90 38 -29 73
-52 78 -52 5 0 6 -4 3 -10 -3 -5 0 -10 7 -10 7 0 26 -11 41 -25 15 -14 27 -22
27 -18 0 4 7 -3 16 -15 8 -12 22 -22 30 -22 8 0 14 -4 14 -8 0 -5 12 -14 26
-20 15 -7 22 -17 18 -24 -4 -6 -3 -8 3 -5 6 4 23 -5 37 -18 15 -14 31 -25 37
-25 5 0 9 -4 9 -10 0 -5 5 -10 12 -10 6 0 18 -7 27 -15 35 -33 80 -65 91 -65
6 0 8 -4 5 -10 -3 -5 0 -10 7 -10 13 0 54 -28 90 -62 10 -10 18 -15 18 -10 0
4 4 2 8 -4 10 -14 122 -96 122 -89 0 3 10 -4 23 -15 12 -12 38 -31 57 -43 19
-11 37 -24 40 -27 11 -15 53 -31 59 -23 3 4 23 17 44 28 20 11 37 22 37 25 0
3 16 14 35 24 19 11 35 22 35 26 0 4 8 11 18 14 25 9 60 31 80 50 34 32 80 66
90 66 6 0 12 4 14 8 5 13 132 107 140 104 5 -1 8 2 8 7 0 4 17 20 38 34 36 24
51 36 112 84 15 12 30 20 33 17 3 -3 8 4 12 15 3 12 10 19 15 16 7 -4 21 6 93
69 9 9 17 13 17 9 0 -4 8 2 19 13 10 10 29 26 41 34 12 8 30 22 39 30 9 9 34
29 56 45 53 39 54 39 100 80 22 19 44 35 48 35 4 0 18 10 31 23 13 12 38 33
56 47 18 14 45 37 61 52 16 15 29 24 29 21 0 -4 8 2 19 13 10 10 35 33 57 49
21 17 51 43 66 58 16 15 28 25 28 21 0 -4 15 9 33 28 17 19 48 46 67 61 19 14
61 51 94 81 32 31 63 56 67 56 5 0 8 3 7 8 -2 4 -1 7 2 7 11 0 230 226 230
237 0 6 3 9 6 5 7 -7 34 17 34 29 0 4 20 27 44 50 25 23 42 45 39 48 -4 3 1 6
11 6 9 0 14 5 11 10 -3 6 1 13 9 16 9 3 16 10 16 15 0 5 14 23 30 41 17 17 30
35 30 39 0 5 7 9 16 9 8 0 13 4 10 9 -3 5 5 20 18 34 13 14 21 28 19 31 -3 3
2 8 11 12 9 3 16 12 16 18 0 7 11 23 25 36 13 12 22 27 19 31 -3 5 -1 9 4 9 9
0 62 77 62 91 0 5 3 9 8 9 4 0 16 17 27 38 11 20 28 44 37 53 10 9 15 19 12
22 -3 3 6 23 20 44 14 20 26 41 26 46 0 5 7 15 15 24 8 8 13 19 10 24 -4 5 -1
9 5 9 6 0 9 4 6 9 -4 5 -3 11 1 13 13 5 54 99 48 109 -4 5 -2 9 4 9 9 0 58
116 66 158 2 12 7 27 10 32 3 5 8 18 10 27 2 10 9 32 15 48 7 17 14 41 16 55
3 26 11 65 14 65 6 0 30 189 34 265 1 14 5 30 8 36 4 6 4 14 0 18 -4 4 -7 44
-8 89 -2 88 -8 145 -22 220 -5 26 -7 47 -4 47 2 0 -2 7 -9 17 -8 9 -13 18 -11
20 9 13 -2 23 -23 19 -14 -3 -25 -1 -25 4 0 5 -13 5 -30 0 -16 -5 -32 -5 -34
-1 -4 6 -58 11 -166 14 -30 1 -58 6 -62 12 -5 6 -8 5 -8 -3 0 -10 -5 -10 -21
-1 -17 9 -20 8 -14 -2 6 -8 4 -10 -5 -4 -6 4 -32 9 -56 12 -38 3 -43 1 -37
-14 3 -10 10 -23 15 -30 6 -7 7 -17 3 -23 -3 -5 -1 -10 5 -10 6 0 9 -4 5 -9
-3 -5 -1 -12 4 -16 6 -3 8 -12 4 -20 -3 -8 -1 -15 3 -15 5 0 10 -10 10 -22 1
-13 5 -42 8 -65 4 -23 8 -57 10 -77 1 -19 5 -38 8 -42 4 -4 3 -15 -3 -25 -7
-14 -6 -19 2 -19 8 0 8 -4 -1 -15 -9 -11 -9 -15 -1 -15 7 0 9 -4 6 -10 -12
-20 -14 -50 -2 -50 8 0 8 -3 2 -8 -5 -4 -11 -20 -12 -37 -1 -16 -5 -43 -7 -60
-3 -16 -7 -47 -10 -67 -3 -20 -10 -56 -17 -80 -14 -54 -15 -56 -24 -95 -4 -18
-14 -38 -21 -44 -8 -6 -11 -15 -8 -20 2 -5 -2 -22 -11 -39 -8 -16 -13 -30 -10
-30 4 0 -2 -12 -13 -27 -10 -16 -17 -34 -15 -40 3 -7 0 -13 -7 -13 -6 0 -9 -4
-5 -9 3 -5 2 -12 -3 -15 -4 -2 -27 -43 -51 -90 -24 -47 -47 -86 -52 -86 -5 0
-8 -3 -7 -7 3 -14 -25 -63 -35 -63 -6 0 -8 -3 -4 -6 6 -6 -2 -17 -36 -56 -10
-11 -16 -22 -13 -25 3 -3 -4 -14 -16 -24 -11 -11 -18 -19 -15 -19 7 0 -13 -27
-55 -73 -16 -17 -28 -35 -28 -41 0 -6 -9 -18 -20 -26 -11 -8 -20 -18 -20 -22
0 -4 -15 -23 -32 -42 -18 -19 -50 -54 -70 -78 -20 -24 -57 -64 -82 -91 -25
-26 -46 -52 -46 -57 0 -6 -3 -9 -7 -8 -5 2 -31 -21 -59 -49 -29 -29 -55 -49
-58 -45 -4 3 -4 -2 0 -12 5 -13 4 -17 -4 -12 -6 3 -16 -3 -22 -14 -6 -11 -14
-20 -19 -20 -4 0 -42 -34 -84 -75 -42 -41 -81 -75 -87 -75 -5 0 -14 -9 -20
-20 -6 -11 -15 -18 -20 -15 -5 3 -11 -4 -15 -15 -4 -11 -10 -18 -14 -16 -4 3
-14 -4 -21 -15 -8 -10 -18 -19 -22 -19 -4 0 -23 -15 -42 -32 -19 -18 -47 -43
-63 -55 -70 -54 -101 -79 -115 -93 -9 -8 -28 -24 -43 -35 -14 -11 -37 -30 -50
-43 -14 -13 -25 -19 -25 -15 -1 4 -10 -3 -20 -16 -11 -13 -20 -19 -20 -15 0 5
-11 -4 -25 -20 -14 -16 -25 -26 -25 -22 0 4 -6 2 -12 -4 -46 -38 -67 -55 -98
-79 -19 -14 -38 -30 -42 -36 -4 -5 -8 -7 -8 -2 0 4 -8 -1 -18 -10 -10 -10 -31
-27 -46 -38 -16 -11 -33 -24 -40 -30 -26 -23 -86 -66 -91 -65 -4 1 -16 -11
-27 -25 -11 -14 -23 -24 -25 -21 -3 3 -12 -2 -21 -10 -8 -9 -40 -34 -71 -57
-31 -22 -57 -44 -59 -49 -2 -4 -10 -8 -17 -8 -8 0 -21 -10 -29 -22 -9 -12 -16
-19 -16 -14 0 5 -20 -8 -44 -28 -50 -41 -64 -43 -92 -18 -11 9 -42 33 -69 52
-28 19 -51 38 -53 42 -2 4 -10 8 -17 8 -7 0 -15 3 -17 8 -5 12 -96 82 -106 82
-5 0 -12 7 -16 15 -3 8 -10 15 -16 15 -6 0 -25 13 -43 30 -18 16 -36 30 -40
30 -5 0 -14 6 -21 13 -7 6 -28 23 -46 37 -18 14 -39 31 -46 38 -7 6 -16 12
-21 12 -4 0 -22 14 -40 30 -18 17 -36 30 -41 30 -4 0 -21 14 -37 30 -16 17
-33 30 -38 30 -5 0 -21 12 -37 28 -16 15 -51 43 -77 62 -26 19 -56 43 -65 54
-10 10 -18 16 -18 13 0 -4 -8 1 -18 11 -10 9 -36 31 -56 47 -21 17 -49 39 -61
50 -13 11 -34 28 -47 39 -62 50 -143 122 -146 128 -2 5 -8 6 -13 2 -5 -3 -9 3
-9 12 0 10 -2 15 -6 12 -3 -3 -35 23 -71 58 -37 34 -72 60 -77 57 -6 -4 -8 -3
-5 1 7 7 -148 166 -162 166 -4 0 -11 9 -14 20 -4 11 -9 19 -13 17 -9 -4 -71
61 -64 67 3 3 -3 8 -12 12 -9 3 -13 10 -10 15 3 5 -2 9 -10 9 -9 0 -16 4 -16
8 0 5 -18 27 -40 50 -22 22 -40 43 -40 47 0 3 -9 16 -20 28 -72 77 -80 103
-37 123 12 5 21 15 20 22 -2 7 1 11 6 9 5 -1 23 10 40 26 17 15 34 27 37 27 4
0 17 10 29 23 33 31 55 49 55 42 0 -3 11 5 24 19 13 15 27 26 31 26 4 0 18 12
31 28 13 15 24 23 24 19 0 -4 6 -2 14 5 8 7 13 15 11 18 -3 5 26 35 35 35 3 0
4 2 3 5 0 3 5 11 13 18 8 7 14 10 14 8 0 -3 20 15 45 41 25 25 45 47 45 49 0
1 24 28 53 58 94 99 141 151 139 154 -7 8 0 22 8 17 6 -3 10 -2 10 2 0 5 11
21 25 36 14 15 23 27 20 27 -3 0 3 8 13 18 32 35 52 62 52 72 0 6 4 10 8 10 5
0 17 16 28 35 10 19 22 35 27 35 4 0 13 14 18 30 6 17 14 30 18 30 4 0 17 18
30 40 12 22 26 40 32 40 5 0 8 3 7 8 -3 13 13 52 22 52 5 0 12 10 16 23 4 12
18 39 31 60 13 20 21 37 17 37 -3 0 2 7 10 16 9 8 14 19 11 24 -3 4 2 13 10
20 8 7 15 17 15 23 0 6 9 29 19 51 24 50 43 96 47 114 1 7 10 25 19 39 12 17
13 23 4 17 -11 -6 -12 -5 -2 7 7 9 14 25 16 37 2 12 6 25 10 28 20 20 0 44
-79 94 -48 30 -91 54 -95 53 -5 -2 -9 1 -9 5 0 8 -71 37 -79 33 -2 -2 -7 1
-10 6 -3 4 -34 18 -68 29 -59 20 -69 19 -64 -8 0 -5 -3 -8 -8 -8 -5 0 -11 -19
-15 -42 -4 -22 -10 -46 -14 -52 -3 -6 -8 -18 -10 -26 -5 -26 -8 -34 -27 -75
-10 -22 -19 -42 -20 -45 -8 -33 -31 -80 -38 -80 -4 0 -6 -4 -2 -9 3 -5 -2 -16
-11 -25 -8 -9 -12 -20 -9 -26 3 -5 1 -10 -4 -10 -6 0 -11 -6 -11 -14 0 -8 -3
-16 -7 -18 -5 -1 -21 -29 -38 -60 -16 -32 -33 -58 -37 -58 -5 0 -8 -5 -8 -10
0 -6 -16 -33 -35 -60 -19 -28 -33 -50 -30 -50 3 0 -8 -13 -25 -30 -17 -16 -28
-30 -24 -30 4 0 -1 -9 -11 -20 -10 -11 -14 -20 -10 -20 4 0 -4 -10 -18 -23
-15 -12 -27 -28 -27 -35 0 -7 -4 -10 -10 -7 -5 3 -10 2 -10 -4 0 -5 -9 -20
-20 -33 -11 -12 -29 -34 -41 -48 -82 -100 -208 -232 -258 -270 -18 -14 -38
-30 -44 -35 -7 -6 -46 -38 -86 -70 -41 -33 -86 -70 -99 -82 -14 -13 -31 -23
-39 -23 -8 0 -12 -4 -9 -8 2 -4 -3 -13 -13 -19 -14 -9 -21 -8 -32 5 -8 10 -15
19 -15 22 -1 3 -11 24 -22 46 -12 23 -18 44 -15 48 4 3 2 6 -4 6 -5 0 -18 25
-28 55 -11 30 -22 55 -26 55 -4 0 -5 9 -2 20 3 11 0 20 -6 20 -6 0 -11 11 -11
25 0 14 -5 25 -11 25 -5 0 -8 4 -5 9 3 4 1 23 -4 42 -6 19 -12 45 -15 59 -3
14 -7 36 -10 50 -14 60 -18 89 -19 147 0 35 -3 63 -6 63 -3 0 -4 17 -3 37 1
21 2 38 3 38 1 0 7 78 12 163 1 6 4 12 8 12 3 0 6 10 7 23 1 31 7 60 16 75 5
6 5 17 2 22 -3 6 -2 10 3 10 5 0 9 6 9 13 1 22 8 41 21 55 6 7 12 22 12 31 0
10 7 24 15 31 9 7 13 15 11 18 -3 2 8 24 24 48 17 23 30 47 30 53 0 6 4 11 8
11 4 0 16 14 26 32 29 48 214 228 236 228 5 0 14 8 19 18 6 9 11 14 11 10 0
-4 9 0 20 10 12 9 23 16 25 15 3 -2 17 7 31 20 14 12 29 22 32 22 4 1 17 6 28
13 12 6 24 8 28 5 3 -3 6 -1 6 6 0 7 4 10 9 7 5 -4 11 -1 13 4 2 6 10 12 18
14 18 4 48 14 75 27 12 6 27 11 35 13 8 1 32 8 53 15 21 7 44 10 52 7 7 -2 15
-1 17 5 2 5 22 10 45 12 24 1 43 4 43 7 0 3 65 7 145 8 111 3 150 0 162 -10
13 -10 15 -10 9 0 -6 10 -1 11 21 7 15 -4 35 -7 43 -7 8 0 20 -4 25 -7 6 -4
22 -7 38 -6 15 0 27 -3 27 -8 0 -5 7 -7 15 -4 8 4 17 2 20 -4 4 -5 12 -9 18
-8 14 3 42 -7 80 -28 16 -8 31 -12 34 -9 3 3 18 -3 33 -14 15 -11 30 -17 34
-13 3 3 6 0 6 -7 0 -7 3 -10 7 -7 3 4 15 0 25 -10 10 -9 18 -12 18 -8 0 4 9 0
19 -9 11 -10 25 -15 31 -11 6 3 9 3 8 -2 -2 -4 1 -9 5 -10 5 -1 16 -10 25 -20
9 -10 23 -19 30 -21 7 -1 26 -16 44 -32 17 -17 37 -30 44 -30 8 0 13 -6 11
-12 -1 -7 3 -12 10 -11 6 2 15 -6 18 -17 3 -10 15 -22 26 -25 10 -4 19 -13 19
-21 0 -8 5 -12 10 -9 6 3 10 3 10 -2 0 -7 23 -38 77 -101 13 -15 23 -33 23
-40 0 -7 4 -10 10 -7 6 3 10 -1 10 -9 0 -9 5 -16 10 -16 6 0 10 -6 10 -13 0
-8 11 -24 25 -37 13 -12 23 -26 20 -30 -2 -3 7 -14 20 -24 14 -10 22 -22 19
-27 -3 -5 -1 -9 4 -9 5 0 15 -11 22 -25 17 -32 23 -31 41 3 7 15 23 36 34 47
11 11 22 25 24 30 10 30 14 34 24 28 5 -3 7 -2 4 4 -3 5 5 21 17 34 13 14 27
35 30 47 4 12 12 20 17 17 5 -4 9 -1 9 6 0 24 131 167 202 221 17 13 41 33 54
46 13 13 24 20 24 17 0 -3 19 7 42 23 24 16 62 37 86 47 23 11 42 23 42 28 0
4 4 5 10 2 6 -3 10 -1 10 5 0 6 5 8 11 5 5 -4 20 1 31 12 12 10 18 13 15 6 -4
-6 10 -3 30 6 63 30 255 73 280 64 7 -3 13 -1 13 4 0 12 261 10 335 -2 28 -5
59 -9 70 -9 11 -1 22 -4 25 -8 3 -4 21 -10 40 -13 19 -3 41 -11 49 -18 12 -9
13 -9 7 0 -4 7 15 1 42 -12 28 -14 56 -25 64 -25 8 0 18 -4 24 -9 5 -5 37 -23
72 -41 34 -17 62 -35 62 -41 0 -5 9 -9 21 -9 11 0 17 -4 14 -10 -3 -5 0 -10 8
-10 8 0 28 -13 45 -30 18 -16 36 -30 41 -30 5 0 12 -7 15 -16 3 -8 10 -12 16
-9 6 4 8 11 5 16 -4 5 -1 9 4 9 6 0 11 5 11 11 0 5 13 37 29 69 16 32 27 60
25 63 -3 2 2 10 11 17 8 7 15 20 15 29 0 9 6 23 13 30 6 6 12 15 12 19 0 4 15
37 33 75 31 64 31 68 14 85 -10 9 -31 24 -47 32 -17 8 -34 21 -38 27 -4 7 -13
13 -19 13 -6 0 -19 6 -27 14 -9 8 -23 16 -31 18 -8 2 -17 5 -20 8 -13 13 -90
50 -104 50 -10 0 -15 4 -12 8 2 4 -5 9 -16 9 -12 1 -25 8 -29 15 -5 7 -9 9 -9
4 0 -5 -6 -4 -12 2 -7 6 -17 11 -23 12 -5 1 -20 6 -33 11 -12 5 -34 11 -47 13
-14 3 -28 7 -33 10 -10 6 -68 18 -97 20 -11 0 -22 4 -25 8 -3 4 -21 8 -40 9
-19 2 -39 5 -45 9 -37 22 -426 19 -546 -5 -14 -3 -41 -7 -60 -9 -19 -3 -34 -6
-34 -7 0 -1 -34 -8 -62 -11 -7 -1 -13 -5 -13 -9 0 -4 -8 -6 -17 -4 -10 1 -23
-2 -30 -7 -7 -5 -17 -7 -23 -3 -5 3 -13 -1 -16 -9 -3 -9 -10 -14 -14 -11 -8 5
-27 -1 -105 -31 -11 -4 -22 -8 -25 -9 -55 -21 -70 -29 -70 -37 0 -5 -4 -6 -10
-3 -5 3 -10 2 -10 -3 0 -5 -6 -9 -12 -9 -16 0 -182 -93 -186 -104 -2 -5 -10
-9 -17 -9 -8 0 -18 -6 -22 -14 -4 -8 -15 -16 -23 -18 -8 -2 -23 -12 -34 -23
-10 -11 -22 -19 -27 -18 -5 2 -9 -4 -9 -12 0 -8 -3 -14 -8 -12 -4 1 -21 -10
-37 -25 -16 -16 -32 -28 -35 -28 -3 0 -24 17 -47 38 -57 50 -83 70 -115 90
-16 9 -28 20 -28 24 0 4 -7 8 -15 8 -8 0 -15 3 -15 8 0 4 -9 12 -19 17 -92 47
-117 61 -123 70 -4 5 -8 6 -8 2 0 -5 -15 1 -34 13 -19 11 -45 23 -57 25 -12 3
-26 10 -30 16 -4 7 -14 9 -24 6 -9 -4 -14 -3 -10 2 3 5 -9 13 -27 16 -18 4
-39 12 -45 17 -7 6 -19 8 -28 5 -8 -4 -19 1 -24 11 -6 9 -11 14 -11 11 0 -4
-38 3 -85 16 -46 12 -86 20 -89 18 -3 -3 -11 -1 -18 3 -7 5 -22 9 -33 9 -11 0
-24 3 -30 6 -5 3 -25 5 -42 4 -18 0 -33 2 -33 5 0 3 -25 5 -55 5 -30 0 -55 4
-55 8 0 5 -5 5 -11 1 -16 -10 -89 -11 -89 -1 0 5 -5 5 -12 1 -7 -4 -48 -9 -92
-11 -43 -1 -93 -5 -110 -8 -17 -3 -44 -8 -61 -10 -27 -4 -50 -8 -95 -17 -8 -2
-21 -7 -27 -11 -7 -5 -13 -6 -13 -3 0 3 -18 -1 -40 -9 -22 -8 -40 -12 -40 -8
0 3 -6 0 -13 -6 -8 -6 -17 -8 -20 -4 -4 3 -7 1 -7 -5 0 -7 -3 -11 -7 -11 -5 1
-10 1 -13 -1 -3 -1 -16 -4 -30 -6 -13 -2 -27 -8 -30 -13 -3 -4 -18 -11 -35
-15 -16 -4 -36 -13 -43 -19 -8 -6 -20 -12 -28 -13 -7 -1 -27 -12 -44 -24 -16
-12 -30 -19 -30 -16 0 3 -24 -11 -52 -30 -29 -19 -58 -34 -65 -34 -7 0 -17 -9
-23 -20 -6 -11 -17 -20 -26 -20 -8 0 -17 -7 -20 -15 -4 -8 -10 -12 -15 -9 -5
3 -9 -2 -9 -10 0 -9 -4 -15 -9 -13 -19 5 -182 -147 -251 -233 -19 -24 -48 -60
-65 -79 -16 -19 -23 -31 -15 -27 9 4 8 1 -2 -7 -10 -8 -18 -17 -18 -21 0 -4
-10 -22 -23 -39 -13 -18 -32 -50 -43 -72 -10 -22 -22 -42 -25 -45 -5 -5 -33
-69 -34 -80 -1 -3 -9 -23 -18 -44 -10 -22 -20 -51 -24 -65 -3 -14 -10 -32 -16
-38 -5 -7 -7 -13 -4 -13 3 0 1 -15 -4 -32 -11 -35 -13 -48 -24 -118 -4 -25
-10 -63 -14 -85 -4 -22 -6 -86 -6 -142 0 -62 -4 -103 -10 -103 -7 0 -7 -3 0
-8 9 -6 18 -99 19 -199 0 -24 3 -43 6 -43 3 0 5 -12 6 -27 1 -26 4 -50 20
-133 3 -19 11 -38 16 -41 6 -4 8 -11 4 -17 -3 -5 7 -46 23 -90 16 -44 27 -83
23 -86 -3 -3 0 -6 7 -6 7 0 11 -6 8 -14 -3 -8 1 -17 9 -20 8 -3 14 -17 14 -31
0 -14 4 -25 9 -25 5 0 12 -11 15 -24 3 -13 22 -52 41 -86 19 -34 35 -66 35
-71 0 -5 3 -9 8 -9 4 0 13 -14 21 -30 12 -29 11 -32 -15 -55 -16 -14 -33 -25
-37 -25 -5 0 -5 -4 -2 -10 3 -5 0 -10 -7 -10 -7 0 -29 -14 -48 -31 -82 -70
-92 -79 -99 -79 -4 0 -13 -9 -21 -19 -7 -11 -17 -18 -22 -15 -4 3 -8 1 -8 -4
0 -5 -25 -29 -56 -52 -31 -24 -64 -50 -73 -59 -31 -30 -103 -86 -122 -95 -10
-5 -21 -17 -24 -28 -4 -10 -10 -16 -14 -14 -4 3 -21 -7 -38 -22 -49 -43 -89
-76 -113 -92 -13 -8 -33 -26 -46 -40 -13 -14 -24 -22 -24 -18 0 4 -12 -4 -26
-17 -22 -21 -29 -22 -47 -12 -12 7 -29 20 -38 30 -9 9 -21 17 -26 17 -5 0 -20
11 -33 25 -13 14 -25 23 -28 21 -2 -2 -12 3 -22 12 -26 25 -78 63 -84 63 -3 0
-18 11 -33 24 -65 57 -74 65 -82 65 -4 0 -16 9 -26 20 -10 11 -20 18 -23 15
-3 -2 -18 10 -33 26 -16 17 -29 28 -29 23 0 -4 -12 4 -27 18 -27 24 -159 126
-227 176 -41 30 -96 74 -112 90 -7 6 -15 12 -18 12 -6 0 -20 11 -74 60 -18 17
-35 30 -37 30 -7 0 -45 31 -63 52 -9 9 -19 15 -24 12 -4 -3 -8 2 -8 10 0 9 -4
16 -9 16 -9 0 -76 55 -132 110 -38 37 -43 40 -60 40 -5 0 -8 3 -6 8 3 4 -1 13
-9 20 -8 7 -14 10 -14 6 0 -3 -20 15 -43 40 -24 25 -47 46 -51 46 -16 0 -336
332 -416 430 -14 17 -36 43 -49 58 -13 15 -31 38 -39 52 -9 14 -22 29 -29 33
-8 5 -11 12 -8 18 4 5 2 9 -2 9 -5 0 -19 18 -33 40 -14 22 -28 40 -33 40 -4 0
-5 5 -2 10 3 6 3 10 -2 10 -7 0 -42 54 -42 66 0 2 -6 11 -13 19 -23 26 -33 40
-53 80 -11 22 -23 43 -28 46 -4 3 -9 16 -10 27 -1 12 -7 22 -15 22 -7 0 -10 5
-7 11 4 5 -1 19 -11 30 -9 10 -14 19 -11 19 4 0 -2 15 -13 34 -10 19 -20 43
-22 53 -2 10 -5 20 -8 23 -12 11 -60 172 -55 181 4 5 2 9 -2 9 -5 0 -10 12
-11 27 -1 15 -6 29 -10 32 -4 3 -8 17 -8 31 0 37 -13 110 -20 122 -5 7 -2 8 6
3 9 -5 11 -4 6 3 -12 21 -17 110 -6 117 6 3 7 12 3 18 -9 13 -11 117 -3 117 3
0 5 12 4 28 -1 15 1 32 5 37 3 6 6 19 7 30 1 11 5 30 8 43 3 12 8 30 10 40 2
10 11 34 19 54 9 20 13 39 10 42 -3 3 1 8 10 12 9 3 14 11 11 18 -3 7 2 19 10
26 9 7 14 16 11 20 -3 4 2 13 10 20 19 16 19 34 1 27 -8 -3 -16 -1 -18 4 -2 6
-7 7 -11 2z"/>
<path d="M3356 5853 c-33 -8 -94 -51 -142 -98 -44 -44 -85 -58 -99 -35 -3 6
-15 10 -26 10 -10 0 -19 4 -19 8 0 9 -99 39 -112 34 -5 -1 -8 2 -8 6 0 5 -6 9
-12 9 -31 2 -75 10 -83 15 -6 3 -27 4 -47 4 -21 -1 -38 1 -38 4 0 9 -212 -4
-230 -15 -9 -6 -11 -4 -5 5 5 9 4 11 -4 6 -6 -4 -49 -16 -94 -27 -94 -22 -148
-40 -162 -51 -5 -4 -17 -8 -26 -8 -9 0 -22 -7 -29 -15 -7 -8 -16 -12 -21 -9
-5 3 -9 2 -9 -3 0 -4 -12 -14 -27 -20 -36 -16 -143 -114 -143 -130 0 -7 -4
-13 -9 -13 -5 0 -20 -25 -35 -55 -30 -65 -36 -161 -11 -209 9 -16 13 -31 11
-34 -3 -2 0 -10 7 -17 7 -6 21 -24 32 -38 11 -15 26 -27 34 -27 8 0 11 -3 8
-7 -24 -23 192 -75 228 -54 6 3 16 6 23 7 19 3 87 40 112 61 23 20 62 79 68
103 15 61 14 82 -2 78 -10 -1 -17 -6 -16 -11 0 -4 -7 -21 -15 -37 -9 -17 -12
-30 -9 -30 12 0 -100 -106 -121 -115 -48 -21 -193 -10 -215 16 -3 3 -12 8 -21
11 -9 4 -23 20 -30 37 -8 17 -17 31 -20 31 -4 0 -6 18 -5 40 0 22 -3 42 -9 44
-5 3 -4 5 3 5 7 1 11 5 7 10 -6 11 24 93 38 102 5 3 9 10 8 15 -1 24 100 131
164 172 42 27 115 67 127 71 4 1 13 3 20 6 109 34 144 41 235 49 23 2 47 7 52
11 6 3 11 2 11 -2 0 -5 9 -9 20 -9 11 0 20 4 20 9 0 4 6 5 13 0 6 -4 28 -9 47
-10 84 -5 270 -64 270 -85 0 -5 4 -7 9 -3 5 3 12 1 16 -5 4 -6 11 -7 17 -4 15
10 -21 -50 -48 -80 -13 -13 -20 -27 -17 -30 4 -3 2 -6 -4 -6 -6 0 -30 -32 -54
-71 -24 -38 -58 -93 -76 -120 -18 -27 -31 -52 -30 -54 1 -2 -7 -15 -18 -27
-10 -13 -18 -24 -17 -26 1 -1 -14 -34 -33 -72 -19 -38 -35 -73 -34 -76 0 -4
-3 -10 -8 -13 -4 -3 -18 -26 -31 -51 -12 -25 -41 -74 -62 -109 -22 -34 -40
-67 -40 -72 0 -5 -5 -9 -12 -9 -6 0 -9 -3 -5 -6 3 -4 1 -12 -6 -19 -7 -6 -21
-24 -32 -40 -40 -55 -110 -135 -120 -135 -2 0 -55 27 -119 59 -64 32 -116 57
-116 54 0 -3 -7 0 -15 7 -8 6 -19 9 -25 5 -5 -3 -10 -2 -10 3 0 5 -6 9 -12 9
-7 1 -41 5 -76 10 -35 6 -65 6 -68 1 -3 -4 -10 -6 -15 -3 -19 12 -139 -57
-139 -79 0 -4 -7 -15 -16 -23 -13 -13 -13 -17 -2 -24 11 -7 11 -9 0 -9 -18 0
-11 -54 12 -98 18 -35 82 -82 115 -85 11 -1 21 -4 21 -7 0 -8 8 -9 123 -10 50
-1 104 3 120 9 15 6 27 8 27 6 0 -3 16 1 35 9 19 8 35 12 35 8 0 -4 4 -2 8 3
4 6 27 21 52 34 25 14 51 31 58 38 18 17 37 16 56 -3 9 -8 20 -12 26 -9 5 3
10 2 10 -3 0 -9 76 -35 94 -32 5 1 12 -3 15 -8 3 -5 24 -13 46 -16 22 -4 51
-9 65 -12 61 -12 92 -15 193 -18 59 -1 107 0 107 4 0 3 12 5 26 5 29 -2 143
25 187 43 16 7 31 12 35 12 12 0 113 70 141 99 32 31 95 121 85 121 -4 0 1 9
11 20 10 11 15 20 11 20 -4 0 -2 9 4 19 5 11 13 37 16 58 3 21 8 41 10 45 8
13 2 263 -6 263 -1 0 -4 13 -6 30 -3 16 -10 32 -16 36 -5 3 -9 8 -7 10 11 18
-83 200 -121 234 -11 10 -20 22 -20 27 0 12 -75 82 -127 119 -40 28 -42 31
-31 57 12 25 43 72 78 115 8 10 28 25 43 33 15 8 25 19 22 24 -6 11 -8 11 -39
3z m-97 -321 c28 -27 51 -54 51 -60 0 -7 4 -12 9 -12 8 0 73 -95 76 -110 1 -3
11 -24 23 -47 12 -24 19 -43 15 -43 -4 0 -2 -5 5 -12 7 -7 12 -22 12 -35 0
-13 4 -23 8 -23 4 0 9 -12 10 -27 4 -42 7 -57 15 -70 4 -6 3 -14 -2 -17 -6 -4
-6 -18 -1 -36 5 -18 5 -32 -1 -35 -5 -4 -5 -13 1 -24 5 -10 7 -21 4 -23 -2 -3
-7 -27 -9 -53 -3 -26 -10 -56 -16 -66 -5 -10 -7 -19 -4 -19 3 0 -6 -21 -20
-47 -44 -83 -40 -78 -130 -157 -16 -15 -40 -29 -52 -32 -13 -4 -23 -10 -23
-15 0 -5 -4 -9 -9 -9 -5 0 -22 -5 -38 -11 -15 -6 -30 -11 -33 -11 -3 0 -15 -4
-28 -9 -59 -22 -277 -32 -342 -16 -32 9 -53 13 -102 21 -10 1 -21 5 -24 9 -4
4 -15 7 -25 7 -10 0 -25 7 -33 16 -9 8 -20 13 -25 10 -5 -3 -14 1 -21 9 -7 8
-16 13 -20 10 -23 -14 1 28 32 57 38 35 104 111 128 148 8 12 29 41 45 64 17
22 51 73 75 111 25 39 47 72 51 75 3 3 9 15 13 28 4 12 12 22 17 22 5 0 9 7 9
15 0 8 5 15 10 15 6 0 10 5 10 11 0 5 23 47 52 92 28 45 58 93 67 107 8 14 22
37 31 52 53 94 117 187 127 188 6 0 34 -22 62 -48z m-1169 -807 c0 -5 5 -3 10
5 5 8 10 10 10 4 0 -10 6 -12 50 -16 11 -1 20 -6 20 -10 0 -4 5 -8 11 -8 10 0
43 -14 157 -68 l64 -31 -41 -25 c-22 -14 -45 -26 -51 -26 -5 0 -10 -5 -10 -11
0 -5 -5 -7 -10 -4 -6 4 -16 2 -23 -4 -15 -12 -56 -21 -122 -26 -27 -2 -54 -4
-60 -6 -15 -4 -88 19 -105 34 -21 17 -43 61 -43 89 -1 35 31 88 62 101 34 15
81 16 81 2z"/>
<path d="M7150 4758 c0 -3 -8 -5 -17 -4 -10 2 -40 -3 -68 -11 -27 -8 -58 -16
-67 -18 -41 -9 -192 -84 -218 -107 -11 -10 -21 -18 -24 -18 -3 0 -22 -11 -42
-25 -20 -14 -34 -25 -30 -25 4 0 -7 -12 -26 -27 -18 -16 -41 -38 -51 -51 -10
-12 -25 -28 -32 -36 -7 -7 -36 -47 -63 -89 l-50 -76 -25 38 c-31 47 -58 124
-55 159 1 15 -1 33 -6 40 -4 7 -4 12 1 12 4 0 8 13 9 28 1 31 45 124 70 149
10 11 12 19 5 26 -11 11 -66 -43 -77 -75 -3 -10 -10 -18 -15 -18 -5 0 -8 -3
-7 -7 1 -5 -6 -25 -15 -46 -26 -60 -23 -227 5 -227 5 0 7 -3 4 -8 -2 -4 15
-36 40 -72 26 -39 39 -67 33 -71 -6 -3 -10 -10 -10 -15 1 -5 -4 -22 -10 -39
-13 -34 -12 -32 -34 -105 -17 -57 -29 -300 -15 -300 4 0 10 -15 14 -32 9 -49
10 -52 36 -105 38 -74 115 -146 185 -172 61 -23 181 -32 235 -18 14 4 43 11
65 16 22 5 49 12 60 16 42 15 91 36 105 45 8 6 26 15 40 21 30 12 136 85 164
111 29 28 61 44 50 26 -5 -7 -9 -19 -11 -27 -1 -8 -5 -26 -9 -40 -4 -14 -7
-29 -6 -33 1 -5 -3 -8 -10 -8 -6 0 -9 -3 -5 -6 7 -8 -9 -54 -46 -134 -17 -36
-31 -67 -32 -70 -3 -12 -39 -77 -54 -95 -14 -17 -30 -20 -106 -22 -167 -5
-215 -8 -215 -14 0 -3 -18 -5 -40 -5 -22 1 -40 -2 -40 -6 0 -4 -12 -7 -27 -7
-38 -1 -66 -6 -78 -13 -8 -4 -111 -37 -135 -43 -31 -7 -186 -93 -219 -121 -93
-80 -114 -152 -59 -205 37 -34 114 -73 128 -64 6 3 10 3 10 -2 0 -14 127 -6
200 12 14 3 32 8 40 10 8 2 15 4 15 5 0 1 7 3 15 5 8 1 33 11 55 20 22 10 42
19 45 20 50 17 213 112 218 126 2 5 8 9 13 9 18 0 170 143 217 204 22 28 26
29 95 28 183 -5 217 -7 217 -12 0 -3 10 -6 23 -7 12 0 43 -4 68 -7 48 -7 75 5
41 19 -31 13 -118 32 -135 29 -10 -1 -17 1 -17 5 0 4 -28 8 -62 9 -33 1 -68 8
-76 15 -9 6 -13 7 -10 1 5 -6 -10 -10 -43 -10 -27 1 -49 4 -49 8 0 4 11 27 25
50 96 163 207 431 189 459 -3 5 -2 9 3 9 7 0 9 32 5 82 -1 10 -13 25 -26 33
-40 26 -87 0 -136 -76 -22 -34 -40 -67 -40 -74 0 -15 -56 -74 -105 -110 -22
-17 -43 -34 -47 -40 -4 -5 -8 -6 -8 -1 0 4 -11 1 -25 -8 -28 -19 -116 -52
-160 -61 -67 -14 -82 -16 -130 -15 -139 2 -228 56 -275 166 -39 90 -45 224
-15 354 2 8 4 16 5 18 2 1 3 5 4 10 1 4 4 12 7 17 8 13 23 68 21 78 -1 4 3 7
9 7 5 0 8 4 4 9 -13 23 18 19 67 -7 54 -29 139 -58 193 -66 17 -2 30 -5 30 -6
0 -1 20 -4 45 -6 25 -2 71 -5 103 -7 31 -3 57 -2 57 2 0 3 26 6 58 7 52 0 76
3 137 17 65 16 81 21 93 30 6 5 12 7 12 4 0 -3 32 10 71 29 117 57 229 189
233 274 0 17 4 30 8 30 4 0 5 10 2 23 -2 12 -7 35 -9 51 -11 55 -34 96 -84
146 -28 27 -54 50 -59 50 -4 0 -26 9 -48 19 -21 11 -65 24 -97 30 -32 6 -62
13 -68 16 -5 4 -9 1 -9 -5 0 -6 -5 -8 -12 -3 -16 9 -108 11 -108 1z m235 -68
c96 -37 148 -79 161 -127 3 -13 9 -23 13 -23 8 0 6 -77 -4 -120 -10 -46 -65
-128 -110 -165 -20 -17 -45 -37 -55 -45 -10 -9 -42 -27 -72 -40 -29 -14 -55
-28 -58 -31 -3 -3 -13 -5 -22 -3 -10 1 -18 -2 -18 -7 0 -6 -4 -8 -9 -4 -5 3
-12 1 -16 -4 -3 -5 -13 -10 -23 -10 -49 -2 -72 -6 -72 -11 0 -12 -298 -13
-310 0 -4 5 -66 24 -106 33 -6 2 -23 10 -37 20 -15 9 -30 17 -34 17 -4 0 -16
7 -27 15 -18 14 -18 16 9 62 15 26 35 56 43 66 8 9 12 17 9 17 -10 0 36 52
126 142 48 48 92 88 97 88 4 0 15 6 22 14 24 23 124 76 131 69 4 -3 7 -2 7 4
0 10 79 40 130 50 13 2 26 6 28 8 8 8 169 -4 197 -15z m-285 -1530 c0 -13
-166 -180 -179 -180 -6 0 -11 -4 -11 -10 0 -5 -7 -10 -15 -10 -8 0 -15 -3 -15
-8 0 -4 -8 -12 -19 -17 -67 -35 -131 -66 -136 -65 -3 0 -13 -6 -21 -15 -14
-13 -35 -20 -56 -16 -5 0 -8 -4 -8 -10 0 -6 -7 -9 -15 -5 -8 3 -15 1 -15 -4 0
-6 -8 -10 -18 -10 -10 0 -22 -3 -26 -7 -9 -9 -36 -13 -128 -17 -100 -5 -152
17 -155 65 -2 26 7 40 54 85 31 30 66 60 79 67 12 6 49 26 81 42 32 17 60 32
63 35 3 3 12 5 20 5 8 0 18 3 21 8 3 4 19 10 34 13 16 3 35 10 42 16 7 6 13 8
13 5 0 -3 17 -1 38 4 49 12 99 20 144 22 21 1 38 4 38 7 0 3 43 6 95 7 54 2
95 -1 95 -7z"/>
</g>
</svg>
